<?xml version="1.0" standalone="no"?>
<svg xmlns="http://www.w3.org/2000/svg" viewBox="0 0 196.416 29" width="196.416" height="29"><g fill="#000000" color="#000000" transform="translate(0, 0) scale(0.5576924)"><svg width="52.0" height="52.0" x="0.0" y="0.0" viewBox="0 0 52 52"><path fill="currentColor" fill-rule="evenodd" d="M48.231 30.94l-.26 1.04c0 .173-.087.173-.087.173v-.173c.867-7.973-10.4-12.566-22.966-12.566-2.514 0-5.2.173-7.714.606-3.986.607-7.02 1.56-9.186 2.6.26 2.774 2.773 3.12 4.333 3.12h.52c2.253-.086 5.027-.52 6.413-.693.174 0 .434-.087.52-.087 1.56-.173 3.207-.346 4.767-.346 7.02 0 14.04 1.905 17.767 6.153 3.639 4.16 2.426 9.013-2.514 13.26-4.506 3.813-10.314 4.592-13.347 4.767h-.693c-3.293 0-6.153-.954-6.673-1.214-4.853-1.906-4.16-5.113-1.473-6.846 2.166-1.387 4.853-1.994 7.366-1.994 4.506 0 8.494 1.907 8.06 4.42-.26 1.734-2.34 2.687-3.987 2.687-.433 0-.867-.087-1.213-.261l-.087-.086c-.086-.173-.173-.26-.606-.433a5.446 5.446 0 0 0-1.647-.26c-1.56 0-3.206.607-3.64 1.473-.26.606.26 1.04.954 1.3.78.26 1.646.347 2.426.347.954 0 1.734-.087 2.167-.174 5.027-.867 9.446-3.206 11.267-5.286 1.473-1.733 1.126-4.16-2.947-6.067-3.467-1.733-7.887-2.08-11.18-2.08-2.167 0-3.813.174-4.42.26-.433.087-3.207.434-6.24.434h-.693c-1.04 0-1.994-.087-3.034-.261-2.773-.346-5.98-2.686-6.933-6.067a12.367 12.367 0 0 1-.173-.952v-.52c-.087-2.774-.26-6.674 1.646-9.36 3.814-5.287 11.614-7.627 19.587-7.627 11.093 0 22.62 4.68 24.18 12.827.086 0 .693 3.726-.26 7.886M23.791 3.207a22.726 22.726 0 0 1 20.02 8.493c-5.113-3.033-11.613-4.853-18.633-4.68-6.327.087-12.134 1.734-16.987 4.42 3.813-4.506 9.273-7.626 15.6-8.233m28.08 20.28c-.52-5.027-2.427-9.793-5.633-13.78A25.978 25.978 0 0 0 25.958 0c-.867 0-1.647 0-2.514.087-6.846.693-13.086 3.987-17.506 9.36C1.518 14.82-.562 21.58.13 28.427 1.344 41.947 12.698 52 25.958 52c.866 0 1.646 0 2.513-.086 6.933-.695 13.173-3.987 17.593-9.361a26.535 26.535 0 0 0 5.807-19.066"></path></svg></g><line x1="41" y1="1" x2="41" y2="28" stroke="#000000" stroke-linecap="round"></line><path fill="#000000" fill-rule="nonzero" d="M1.25 11.28Q1.99 11.28 2.40 11.74Q2.81 12.19 2.81 12.85Q2.81 13.51 2.59 13.92L2.59 13.92Q3.65 14.78 5.03 14.78Q6.41 14.78 7.10 14.15Q7.80 13.51 7.80 12.41Q7.80 11.30 7.03 10.51Q6.26 9.72 5.17 9.19Q4.08 8.66 3 8.08Q1.92 7.49 1.15 6.50Q0.38 5.52 0.38 4.18L0.38 4.18Q0.38 2.33 1.61 1.28Q2.83 0.24 4.75 0.24Q6.67 0.24 8.08 1.15Q9.48 2.06 9.48 3.61Q9.48 5.16 8.23 5.16L8.23 5.16Q7.49 5.16 7.08 4.70Q6.67 4.25 6.67 3.53Q6.67 2.81 6.96 2.42L6.96 2.42Q6.12 1.66 4.90 1.66Q3.67 1.66 3.06 2.28Q2.45 2.90 2.45 3.84Q2.45 4.78 3 5.44Q3.55 6.10 4.37 6.52Q5.18 6.94 6.14 7.48Q7.10 8.02 7.92 8.54Q8.74 9.07 9.29 9.97Q9.84 10.87 9.84 12.02L9.84 12.02Q9.84 13.92 8.53 15.12Q7.22 16.32 5.18 16.32Q3.14 16.32 1.57 15.37Q0 14.42 0 12.72L0 12.72Q0 11.28 1.25 11.28L1.25 11.28ZM18.84 8.59Q18.17 8.59 17.80 8.17Q17.42 7.75 17.42 7.14Q17.42 6.53 17.59 6.22L17.59 6.22Q17.06 5.81 16.34 5.81L16.34 5.81Q13.80 5.81 13.80 10.32L13.80 10.32Q13.80 12.38 14.45 13.49Q15.10 14.59 16.28 14.59Q17.47 14.59 19.22 13.10L19.22 13.10Q19.92 13.82 20.11 15L20.11 15Q18.10 16.32 16.01 16.32Q13.92 16.32 12.88 14.81Q11.83 13.30 11.83 10.34Q11.83 7.39 12.98 5.94Q14.14 4.49 16.25 4.49L16.25 4.49Q17.90 4.49 18.94 5.27Q19.97 6.05 19.97 7.32Q19.97 8.59 18.84 8.59L18.84 8.59ZM22.42 14.64L23.26 14.57Q23.47 12.22 23.47 10.26Q23.47 8.30 23.28 6.19L23.28 6.19L22.39 6.12Q22.32 5.71 22.32 5.34Q22.32 4.97 22.34 4.78L22.34 4.78Q23.74 4.73 25.32 4.56L25.32 4.56L25.44 4.68Q25.22 6.10 25.22 9.43Q25.22 12.77 25.44 14.57L25.44 14.57L26.33 14.64Q26.38 15.02 26.38 15.30Q26.38 15.58 26.30 15.98L26.30 15.98Q25.46 15.96 24.36 15.96Q23.26 15.96 22.44 15.98L22.44 15.98Q22.37 15.62 22.37 15.24Q22.37 14.86 22.42 14.64L22.42 14.64ZM25.68 1.25L25.68 1.25Q25.68 2.74 24.14 2.74L24.14 2.74Q22.94 2.74 22.94 1.51L22.94 1.51Q22.94 0 24.48 0L24.48 0Q25.68 0 25.68 1.25ZM32.62 10.63L32.62 10.63Q31.44 10.63 30.43 10.51L30.43 10.51Q30.48 14.59 33.14 14.59L33.14 14.59Q34.49 14.59 36.12 13.10L36.12 13.10Q36.82 13.82 37.01 15L37.01 15Q35.04 16.32 32.83 16.32Q30.62 16.32 29.54 14.80Q28.46 13.27 28.46 10.32Q28.46 7.37 29.68 5.93Q30.89 4.49 33.12 4.49L33.12 4.49Q34.78 4.49 35.86 5.50Q36.94 6.50 36.95 7.97Q36.96 9.43 36.70 10.06L36.70 10.06Q34.90 10.63 32.62 10.63ZM32.95 5.83L32.95 5.83Q30.72 5.83 30.46 9.12L30.46 9.12Q31.54 9.24 32.83 9.24Q34.13 9.24 34.85 9L34.85 9Q34.94 8.40 34.94 8.11L34.94 8.11Q34.94 7.06 34.40 6.44Q33.86 5.83 32.95 5.83ZM48.84 7.56L48.84 7.56L48.82 9.89Q48.82 12.41 49.10 14.57L49.10 14.57L49.94 14.64Q49.99 15.17 49.99 15.37Q49.99 15.58 49.92 15.98L49.92 15.98Q49.25 15.96 47.90 15.96Q46.56 15.96 45.98 15.98L45.98 15.98Q45.91 15.62 45.91 15.30Q45.91 14.98 45.96 14.64L45.96 14.64L46.80 14.57Q46.99 11.76 46.99 9.76Q46.99 7.75 46.60 6.89Q46.20 6.02 45.24 6.02L45.24 6.02Q43.94 6.02 42.38 7.58L42.38 7.58Q42.36 8.21 42.36 10.50Q42.36 12.79 42.58 14.57L42.58 14.57L43.46 14.64Q43.51 15.17 43.51 15.37Q43.51 15.58 43.44 15.98L43.44 15.98Q42.77 15.96 41.47 15.96Q40.18 15.96 39.58 15.98L39.58 15.98Q39.50 15.62 39.50 15.30Q39.50 14.98 39.55 14.64L39.55 14.64L40.39 14.57Q40.61 12.17 40.61 10.16Q40.61 8.16 40.42 6.19L40.42 6.19L39.53 6.12Q39.46 5.71 39.46 5.32Q39.46 4.92 39.48 4.78L39.48 4.78Q40.70 4.75 42.46 4.56L42.46 4.56L42.58 4.68Q42.53 4.97 42.43 6.12L42.43 6.12Q43.18 5.38 44.16 4.93Q45.14 4.49 46.01 4.49L46.01 4.49Q48.84 4.49 48.84 7.56ZM59.09 8.59Q58.42 8.59 58.04 8.17Q57.67 7.75 57.67 7.14Q57.67 6.53 57.84 6.22L57.84 6.22Q57.31 5.81 56.59 5.81L56.59 5.81Q54.05 5.81 54.05 10.32L54.05 10.32Q54.05 12.38 54.70 13.49Q55.34 14.59 56.53 14.59Q57.72 14.59 59.47 13.10L59.47 13.10Q60.17 13.82 60.36 15L60.36 15Q58.34 16.32 56.26 16.32Q54.17 16.32 53.12 14.81Q52.08 13.30 52.08 10.34Q52.08 7.39 53.23 5.94Q54.38 4.49 56.50 4.49L56.50 4.49Q58.15 4.49 59.18 5.27Q60.22 6.05 60.22 7.32Q60.22 8.59 59.09 8.59L59.09 8.59ZM66.55 10.63L66.55 10.63Q65.38 10.63 64.37 10.51L64.37 10.51Q64.42 14.59 67.08 14.59L67.08 14.59Q68.42 14.59 70.06 13.10L70.06 13.10Q70.75 13.82 70.94 15L70.94 15Q68.98 16.32 66.77 16.32Q64.56 16.32 63.48 14.80Q62.40 13.27 62.40 10.32Q62.40 7.37 63.61 5.93Q64.82 4.49 67.06 4.49L67.06 4.49Q68.71 4.49 69.79 5.50Q70.87 6.50 70.88 7.97Q70.90 9.43 70.63 10.06L70.63 10.06Q68.83 10.63 66.55 10.63ZM66.89 5.83L66.89 5.83Q64.66 5.83 64.39 9.12L64.39 9.12Q65.47 9.24 66.77 9.24Q68.06 9.24 68.78 9L68.78 9Q68.88 8.40 68.88 8.11L68.88 8.11Q68.88 7.06 68.34 6.44Q67.80 5.83 66.89 5.83ZM73.73 11.26L73.73 11.26Q73.58 10.92 73.58 10.51Q73.58 10.10 73.73 9.53L73.73 9.53Q78.26 9.22 79.06 9.02L79.06 9.02Q79.20 9.36 79.20 9.77Q79.20 10.18 79.06 10.75L79.06 10.75Q74.52 11.06 73.73 11.26ZM89.18 7.37L89.26 6.46Q89.78 6.41 89.98 6.41Q90.17 6.41 90.60 6.48L90.60 6.48Q90.58 7.20 90.58 8.30Q90.58 9.41 90.60 9.94L90.60 9.94Q90.24 10.01 89.90 10.01Q89.57 10.01 89.26 9.96L89.26 9.96L89.18 9.12Q87.89 9.07 87.19 9.07Q86.50 9.07 85.15 9.12L85.15 9.12Q85.20 12.77 85.37 14.57L85.37 14.57L86.69 14.66L86.74 15.24Q86.74 15.62 86.66 15.98L86.66 15.98Q86.04 15.96 84.42 15.96Q82.80 15.96 82.30 15.98L82.30 15.98Q82.22 15.62 82.22 15.30Q82.22 14.98 82.27 14.64L82.27 14.64L83.16 14.57Q83.35 12.22 83.35 8.52Q83.35 4.82 83.06 2.02L83.06 2.02L82.25 1.94Q82.20 1.63 82.20 1.30Q82.20 0.96 82.27 0.60L82.27 0.60Q82.87 0.62 86.54 0.62Q90.22 0.62 91.30 0.41L91.30 0.41L91.42 0.53Q91.22 2.64 91.20 3.94L91.20 3.94Q90.96 3.96 90.60 3.96Q90.24 3.96 89.86 3.89L89.86 3.89L89.78 2.26Q88.56 2.18 87.40 2.18Q86.23 2.18 85.30 2.26L85.30 2.26Q85.15 3.84 85.15 7.46L85.15 7.46L86.33 7.46Q87.65 7.46 89.18 7.37L89.18 7.37ZM93.48 14.64L94.32 14.57Q94.54 12.22 94.54 10.26Q94.54 8.30 94.34 6.19L94.34 6.19L93.46 6.12Q93.38 5.71 93.38 5.34Q93.38 4.97 93.41 4.78L93.41 4.78Q94.80 4.73 96.38 4.56L96.38 4.56L96.50 4.68Q96.29 6.10 96.29 9.43Q96.29 12.77 96.50 14.57L96.50 14.57L97.39 14.64Q97.44 15.02 97.44 15.30Q97.44 15.58 97.37 15.98L97.37 15.98Q96.53 15.96 95.42 15.96Q94.32 15.96 93.50 15.98L93.50 15.98Q93.43 15.62 93.43 15.24Q93.43 14.86 93.48 14.64L93.48 14.64ZM96.74 1.25L96.74 1.25Q96.74 2.74 95.21 2.74L95.21 2.74Q94.01 2.74 94.01 1.51L94.01 1.51Q94.01 0 95.54 0L95.54 0Q96.74 0 96.74 1.25ZM106.54 8.59Q105.86 8.59 105.49 8.17Q105.12 7.75 105.12 7.14Q105.12 6.53 105.29 6.22L105.29 6.22Q104.76 5.81 104.04 5.81L104.04 5.81Q101.50 5.81 101.50 10.32L101.50 10.32Q101.50 12.38 102.14 13.49Q102.79 14.59 103.98 14.59Q105.17 14.59 106.92 13.10L106.92 13.10Q107.62 13.82 107.81 15L107.81 15Q105.79 16.32 103.70 16.32Q101.62 16.32 100.57 14.81Q99.53 13.30 99.53 10.34Q99.53 7.39 100.68 5.94Q101.83 4.49 103.94 4.49L103.94 4.49Q105.60 4.49 106.63 5.27Q107.66 6.05 107.66 7.32Q107.66 8.59 106.54 8.59L106.54 8.59ZM110.57 12.07L110.57 12.07Q110.57 12.07 110.62 6.72L110.62 6.72Q110.62 6.36 110.59 6.17L110.59 6.17Q109.58 6.17 109.15 6.19L109.15 6.19Q109.01 5.81 109.01 5.44Q109.01 5.06 109.06 4.87L109.06 4.87L110.52 4.87L110.40 3.10Q111 2.90 111.66 2.90Q112.32 2.90 112.75 3L112.75 3L112.54 4.85Q113.86 4.82 115.20 4.70L115.20 4.70Q115.34 5.02 115.34 5.39Q115.34 5.76 115.25 6.29L115.25 6.29Q114.36 6.24 112.44 6.19L112.44 6.19Q112.39 6.67 112.39 7.61L112.39 7.61L112.39 12.48Q112.39 13.10 112.45 13.50Q112.51 13.90 112.76 14.22Q113.02 14.54 113.50 14.54L113.50 14.54Q114.55 14.54 115.51 13.80L115.51 13.80Q116.02 14.52 116.02 15.74L116.02 15.74Q114.70 16.32 113.72 16.32Q112.75 16.32 112.18 16.07Q111.60 15.82 111.29 15.47Q110.98 15.12 110.81 14.50L110.81 14.50Q110.57 13.61 110.57 12.07ZM117.48 14.64L118.32 14.57Q118.54 12.22 118.54 10.26Q118.54 8.30 118.34 6.19L118.34 6.19L117.46 6.12Q117.38 5.71 117.38 5.34Q117.38 4.97 117.41 4.78L117.41 4.78Q118.80 4.73 120.38 4.56L120.38 4.56L120.50 4.68Q120.29 6.10 120.29 9.43Q120.29 12.77 120.50 14.57L120.50 14.57L121.39 14.64Q121.44 15.02 121.44 15.30Q121.44 15.58 121.37 15.98L121.37 15.98Q120.53 15.96 119.42 15.96Q118.32 15.96 117.50 15.98L117.50 15.98Q117.43 15.62 117.43 15.24Q117.43 14.86 117.48 14.64L117.48 14.64ZM120.74 1.25L120.74 1.25Q120.74 2.74 119.21 2.74L119.21 2.74Q118.01 2.74 118.01 1.51L118.01 1.51Q118.01 0 119.54 0L119.54 0Q120.74 0 120.74 1.25ZM123.53 10.27Q123.53 4.49 128.04 4.49Q132.55 4.49 132.55 10.27L132.55 10.27Q132.55 12.94 131.71 14.50L131.71 14.50Q130.75 16.32 128.04 16.32Q125.33 16.32 124.37 14.50L124.37 14.50Q123.53 12.94 123.53 10.27L123.53 10.27ZM125.50 10.21Q125.50 14.59 128.04 14.59Q130.58 14.59 130.58 10.21Q130.58 5.83 128.04 5.83Q125.50 5.83 125.50 10.21ZM144.26 7.56L144.26 7.56L144.24 9.89Q144.24 12.41 144.53 14.57L144.53 14.57L145.37 14.64Q145.42 15.17 145.42 15.37Q145.42 15.58 145.34 15.98L145.34 15.98Q144.67 15.96 143.33 15.96Q141.98 15.96 141.41 15.98L141.41 15.98Q141.34 15.62 141.34 15.30Q141.34 14.98 141.38 14.64L141.38 14.64L142.22 14.57Q142.42 11.76 142.42 9.76Q142.42 7.75 142.02 6.89Q141.62 6.02 140.66 6.02L140.66 6.02Q139.37 6.02 137.81 7.58L137.81 7.58Q137.78 8.21 137.78 10.50Q137.78 12.79 138 14.57L138 14.57L138.89 14.64Q138.94 15.17 138.94 15.37Q138.94 15.58 138.86 15.98L138.86 15.98Q138.19 15.96 136.90 15.96Q135.60 15.96 135 15.98L135 15.98Q134.93 15.62 134.93 15.30Q134.93 14.98 134.98 14.64L134.98 14.64L135.82 14.57Q136.03 12.17 136.03 10.16Q136.03 8.16 135.84 6.19L135.84 6.19L134.95 6.12Q134.88 5.71 134.88 5.32Q134.88 4.92 134.90 4.78L134.90 4.78Q136.13 4.75 137.88 4.56L137.88 4.56L138 4.68Q137.95 4.97 137.86 6.12L137.86 6.12Q138.60 5.38 139.58 4.93Q140.57 4.49 141.43 4.49L141.43 4.49Q144.26 4.49 144.26 7.56Z" transform="translate(51, 6.34)"></path></svg>